<svg xmlns="http://www.w3.org/2000/svg" viewBox="0 0 64 64">
  <rect width="64" height="64" rx="14" fill="#0D1B2A"/>
  <g fill="none" stroke="#15C26B" stroke-width="4" stroke-linecap="round" stroke-linejoin="round">
    <path d="M32 20v24"/>
    <path d="M32 14c-6.5 0-12 5.5-12 12 0 1.8.3 3.5.9 5.1-4 1.3-6.9 4.8-6.9 8.6 0 4.9 4.1 9 9 9h9"/>
    <path d="M32 14c6.5 0 12 5.5 12 12 0 1.8-.3 3.5-.9 5.1 4 1.3 6.9 4.8 6.9 8.6 0 4.9-4.1 9-9 9h-9"/>
    <path d="M20 26c2 0 3.5 1.5 3.5 3.5M44 26c-2 0-3.5 1.5-3.5 3.5"/>
    <path d="M23 34c1.8 0 3 1.2 3 2.8M41 34c-1.8 0-3 1.2-3 2.8"/>
  </g>
</svg>
